<svg width="24" height="24" viewBox="0 0 24 24" fill="none" xmlns="http://www.w3.org/2000/svg">
<path d="M23 10.9V4.1C23 2.6 22.36 2 20.77 2H16.73C15.14 2 14.5 2.6 14.5 4.1V10.9C14.5 12.4 15.14 13 16.73 13H20.77C22.36 13 23 12.4 23 10.9Z" stroke="#1F2D23" stroke-width="1.5" stroke-linecap="round" stroke-linejoin="round"/>
<path d="M23 19.9V18.1C23 16.6 22.36 16 20.77 16H16.73C15.14 16 14.5 16.6 14.5 18.1V19.9C14.5 21.4 15.14 22 16.73 22H20.77C22.36 22 23 21.4 23 19.9Z" stroke="#1F2D23" stroke-width="1.5" stroke-linecap="round" stroke-linejoin="round"/>
<path d="M11.5 13.1V19.9C11.5 21.4 10.86 22 9.27 22H5.23C3.64 22 3 21.4 3 19.9V13.1C3 11.6 3.64 11 5.23 11H9.27C10.86 11 11.5 11.6 11.5 13.1Z" stroke="#1F2D23" stroke-width="1.5" stroke-linecap="round" stroke-linejoin="round"/>
<path d="M11.5 4.1V5.9C11.5 7.4 10.86 8 9.27 8H5.23C3.64 8 3 7.4 3 5.9V4.1C3 2.6 3.64 2 5.23 2H9.27C10.86 2 11.5 2.6 11.5 4.1Z" stroke="#1F2D23" stroke-width="1.5" stroke-linecap="round" stroke-linejoin="round"/>
</svg>
