<svg width="16" height="16" viewBox="0 0 16 16" fill="none" xmlns="http://www.w3.org/2000/svg">
<path d="M10.6666 8.60016V11.4002C10.6666 13.7335 9.73325 14.6668 7.39992 14.6668H4.59992C2.26659 14.6668 1.33325 13.7335 1.33325 11.4002V8.60016C1.33325 6.26683 2.26659 5.3335 4.59992 5.3335H7.39992C9.73325 5.3335 10.6666 6.26683 10.6666 8.60016Z" stroke="#747474" stroke-opacity="0.8" stroke-linecap="round" stroke-linejoin="round"/>
<path d="M14.6666 4.60016V7.40016C14.6666 9.7335 13.7333 10.6668 11.3999 10.6668H10.6666V8.60016C10.6666 6.26683 9.73325 5.3335 7.39992 5.3335H5.33325V4.60016C5.33325 2.26683 6.26658 1.3335 8.59992 1.3335H11.3999C13.7333 1.3335 14.6666 2.26683 14.6666 4.60016Z" stroke="#747474" stroke-opacity="0.8" stroke-linecap="round" stroke-linejoin="round"/>
</svg>
