<svg width="80" height="80" viewBox="0 0 80 80" fill="none" xmlns="http://www.w3.org/2000/svg">
<path d="M73.3333 19.9998V28.0665C73.3333 33.3332 70 36.6665 64.7333 36.6665H53.3333V13.3665C53.3333 9.6665 56.3666 6.6665 60.0666 6.6665C63.7 6.69984 67.0333 8.1665 69.4333 10.5665C71.8333 12.9998 73.3333 16.3332 73.3333 19.9998Z" stroke="#292D32" stroke-width="3" stroke-miterlimit="10" stroke-linecap="round" stroke-linejoin="round"/>
<path d="M6.66669 23.3332V69.9998C6.66669 72.7665 9.80002 74.3332 12 72.6665L17.7 68.3998C19.0334 67.3998 20.9 67.5332 22.1 68.7332L27.6334 74.2998C28.9334 75.5998 31.0667 75.5998 32.3667 74.2998L37.9667 68.6998C39.1334 67.5332 41 67.3998 42.3 68.3998L48 72.6665C50.2 74.2999 53.3334 72.7332 53.3334 69.9998V13.3332C53.3334 9.6665 56.3334 6.6665 60 6.6665H23.3334H20C10 6.6665 6.66669 12.6332 6.66669 19.9998V23.3332Z" stroke="#292D32" stroke-width="3" stroke-miterlimit="10" stroke-linecap="round" stroke-linejoin="round"/>
<path d="M30 43.3667H40" stroke="#292D32" stroke-width="3" stroke-linecap="round" stroke-linejoin="round"/>
<path d="M30 30.0332H40" stroke="#292D32" stroke-width="3" stroke-linecap="round" stroke-linejoin="round"/>
<path d="M19.9854 43.3335H20.0153" stroke="#292D32" stroke-width="3" stroke-linecap="round" stroke-linejoin="round"/>
<path d="M19.9854 30H20.0153" stroke="#292D32" stroke-width="3" stroke-linecap="round" stroke-linejoin="round"/>
</svg>
